<svg width="26" height="49" viewBox="0 0 26 49" fill="none" xmlns="http://www.w3.org/2000/svg">
<ellipse cx="7.8002" cy="46.2778" rx="2.6" ry="2.72222" fill="#D9D9D9"/>
<ellipse cx="12.9999" cy="46.2778" rx="2.6" ry="2.72222" fill="#D9D9D9"/>
<ellipse cx="18.2001" cy="46.2778" rx="2.6" ry="2.72222" fill="#D9D9D9"/>
<ellipse cx="23.3998" cy="46.2778" rx="2.6" ry="2.72222" fill="#D9D9D9"/>
<ellipse cx="7.8002" cy="40.8333" rx="2.6" ry="2.72222" fill="#D9D9D9"/>
<ellipse cx="18.2001" cy="40.8333" rx="2.6" ry="2.72222" fill="#D9D9D9"/>
<ellipse cx="12.9999" cy="40.8333" rx="2.6" ry="2.72222" fill="#D9D9D9"/>
<ellipse cx="23.3998" cy="40.8333" rx="2.6" ry="2.72222" fill="#D9D9D9"/>
<ellipse cx="2.6" cy="40.8333" rx="2.6" ry="2.72222" fill="#D9D9D9"/>
<ellipse cx="7.8002" cy="35.3888" rx="2.6" ry="2.72222" fill="#D9D9D9"/>
<ellipse cx="2.6" cy="35.3888" rx="2.6" ry="2.72222" fill="#D9D9D9"/>
<ellipse cx="23.3998" cy="35.3888" rx="2.6" ry="2.72222" fill="#D9D9D9"/>
<ellipse cx="18.2001" cy="35.3888" rx="2.6" ry="2.72222" fill="#D9D9D9"/>
<ellipse cx="23.3998" cy="29.9444" rx="2.6" ry="2.72222" fill="#D9D9D9"/>
<ellipse cx="23.3998" cy="13.6111" rx="2.6" ry="2.72222" fill="#D9D9D9"/>
<ellipse cx="18.2001" cy="29.9444" rx="2.6" ry="2.72222" fill="#D9D9D9"/>
<ellipse cx="18.2001" cy="13.6111" rx="2.6" ry="2.72222" fill="#D9D9D9"/>
<ellipse cx="7.8002" cy="29.9444" rx="2.6" ry="2.72222" fill="#D9D9D9"/>
<ellipse cx="7.8002" cy="13.6111" rx="2.6" ry="2.72222" fill="#D9D9D9"/>
<ellipse cx="2.6" cy="29.9444" rx="2.6" ry="2.72222" fill="#D9D9D9"/>
<ellipse cx="2.6" cy="13.6111" rx="2.6" ry="2.72222" fill="#D9D9D9"/>
<ellipse cx="2.6" cy="24.5001" rx="2.6" ry="2.72222" fill="#D9D9D9"/>
<ellipse cx="2.6" cy="8.16668" rx="2.6" ry="2.72222" fill="#D9D9D9"/>
<ellipse cx="23.3998" cy="24.5001" rx="2.6" ry="2.72222" fill="#D9D9D9"/>
<ellipse cx="23.3998" cy="8.16668" rx="2.6" ry="2.72222" fill="#D9D9D9"/>
<ellipse cx="23.3998" cy="19.0556" rx="2.6" ry="2.72222" fill="#D9D9D9"/>
<ellipse cx="12.9999" cy="8.16668" rx="2.6" ry="2.72222" fill="#D9D9D9"/>
<ellipse cx="18.2001" cy="24.5001" rx="2.6" ry="2.72222" fill="#D9D9D9"/>
<ellipse cx="18.2001" cy="8.16668" rx="2.6" ry="2.72222" fill="#D9D9D9"/>
<ellipse cx="7.8002" cy="24.5001" rx="2.6" ry="2.72222" fill="#D9D9D9"/>
<ellipse cx="7.8002" cy="8.16668" rx="2.6" ry="2.72222" fill="#D9D9D9"/>
<ellipse cx="18.2001" cy="19.0556" rx="2.6" ry="2.72222" fill="#D9D9D9"/>
<ellipse cx="18.2001" cy="2.72222" rx="2.6" ry="2.72222" fill="#D9D9D9"/>
<ellipse cx="12.9999" cy="2.72222" rx="2.6" ry="2.72222" fill="#D9D9D9"/>
<ellipse cx="7.8002" cy="19.0556" rx="2.6" ry="2.72222" fill="#D9D9D9"/>
<ellipse cx="7.8002" cy="2.72222" rx="2.6" ry="2.72222" fill="#D9D9D9"/>
<ellipse cx="2.6" cy="19.0556" rx="2.6" ry="2.72222" fill="#D9D9D9"/>
<ellipse cx="2.6" cy="2.72222" rx="2.6" ry="2.72222" fill="#D9D9D9"/>
</svg>
