<svg width="34" height="34" viewBox="0 0 34 34" fill="none" xmlns="http://www.w3.org/2000/svg">
<path d="M8.5 11.3333C8.5 9.07897 9.39553 6.91696 10.9896 5.32291C12.5837 3.72885 14.7457 2.83331 17 2.83331C19.2543 2.83331 21.4163 3.72885 23.0104 5.32291C24.6045 6.91696 25.5 9.07897 25.5 11.3333C25.5 21.25 29.75 24.0833 29.75 24.0833H4.25C4.25 24.0833 8.5 21.25 8.5 11.3333Z" stroke="#87B29E" stroke-width="2" stroke-linecap="round" stroke-linejoin="round"/>
<path d="M14.5918 29.75C14.8289 30.1813 15.1775 30.541 15.6012 30.7915C16.0248 31.0421 16.508 31.1742 17.0001 31.1742C17.4923 31.1742 17.9755 31.0421 18.3991 30.7915C18.8227 30.541 19.1713 30.1813 19.4085 29.75" stroke="#87B29E" stroke-width="2" stroke-linecap="round" stroke-linejoin="round"/>
</svg>
