<svg width="22" height="22" viewBox="0 0 22 22" fill="none" xmlns="http://www.w3.org/2000/svg">
<path d="M16 12.8654V1.35168" stroke="#87B29E" stroke-width="2" stroke-linecap="round" stroke-linejoin="round"/>
<path d="M7.99992 16.8184L8.99992 12.8654H3.16992C2.85943 12.8654 2.55321 12.796 2.27549 12.6628C1.99778 12.5296 1.75622 12.3361 1.56992 12.0978C1.38363 11.8595 1.25772 11.5828 1.20218 11.2897C1.14664 10.9966 1.16298 10.6951 1.24992 10.4091L3.57992 2.73333C3.70109 2.33473 3.95373 1.9846 4.29992 1.73547C4.64611 1.48635 5.06718 1.35168 5.49992 1.35168H18.9999C19.5304 1.35168 20.0391 1.55386 20.4141 1.91373C20.7892 2.27361 20.9999 2.7617 20.9999 3.27064V10.9464C20.9999 11.4554 20.7892 11.9435 20.4141 12.3033C20.0391 12.6632 19.5304 12.8654 18.9999 12.8654H16.2399C15.8678 12.8656 15.5032 12.9654 15.187 13.1535C14.8707 13.3417 14.6155 13.6107 14.4499 13.9304L10.9999 20.5412C10.5283 20.5356 10.0642 20.4278 9.64212 20.2259C9.22005 20.024 8.85099 19.7332 8.56252 19.3752C8.27404 19.0173 8.07361 18.6014 7.97618 18.1586C7.87876 17.7159 7.88688 17.2577 7.99992 16.8184Z" stroke="#87B29E" stroke-width="2" stroke-linecap="round" stroke-linejoin="round"/>
</svg>
