<svg width="57" height="56" viewBox="0 0 57 56" fill="none" xmlns="http://www.w3.org/2000/svg">
<ellipse cx="28.5" cy="27.9124" rx="28.5" ry="27.3451" fill="#D9D9D9"/>
<path d="M36.75 38.4561V35.9561C36.75 34.63 36.2232 33.3582 35.2855 32.4205C34.3479 31.4828 33.0761 30.9561 31.75 30.9561H24.25C22.9239 30.9561 21.6521 31.4828 20.7145 32.4205C19.7768 33.3582 19.25 34.63 19.25 35.9561V38.4561" stroke="#354450" stroke-width="2" stroke-linecap="round" stroke-linejoin="round"/>
<path d="M28 25.9561C30.7614 25.9561 33 23.7175 33 20.9561C33 18.1946 30.7614 15.9561 28 15.9561C25.2386 15.9561 23 18.1946 23 20.9561C23 23.7175 25.2386 25.9561 28 25.9561Z" stroke="#354450" stroke-width="2" stroke-linecap="round" stroke-linejoin="round"/>
</svg>
