<svg width="24" height="24" viewBox="0 0 24 24" fill="none" xmlns="http://www.w3.org/2000/svg">
<g clip-path="url(#clip0_441_1109)">
<path d="M7 8.39209V19.9058" stroke="#87B29E" stroke-width="2" stroke-linecap="round" stroke-linejoin="round"/>
<path d="M15 4.43907L14 8.39212H19.83C20.1405 8.39212 20.4467 8.46148 20.7244 8.5947C21.0021 8.72793 21.2437 8.92137 21.43 9.1597C21.6163 9.39802 21.7422 9.67469 21.7977 9.96779C21.8533 10.2609 21.8369 10.5624 21.75 10.8484L19.42 18.5242C19.2988 18.9228 19.0462 19.2729 18.7 19.522C18.3538 19.7712 17.9327 19.9058 17.5 19.9058H4C3.46957 19.9058 2.96086 19.7036 2.58579 19.3438C2.21071 18.9839 2 18.4958 2 17.9869V10.3111C2 9.80213 2.21071 9.31404 2.58579 8.95416C2.96086 8.59429 3.46957 8.39212 4 8.39212H6.76C7.13208 8.39193 7.49674 8.29215 7.81296 8.104C8.12917 7.91586 8.38442 7.64681 8.55 7.3271L12 0.716309C12.4716 0.721912 12.9357 0.829689 13.3578 1.03159C13.7799 1.23349 14.1489 1.52429 14.4374 1.88227C14.7259 2.24024 14.9263 2.65614 15.0237 3.09888C15.1212 3.54162 15.113 3.99976 15 4.43907Z" stroke="#87B29E" stroke-width="2" stroke-linecap="round" stroke-linejoin="round"/>
</g>
<defs>
<clipPath id="clip0_441_1109">
<rect width="24" height="23.0274" fill="white" transform="translate(0 0.716309)"/>
</clipPath>
</defs>
</svg>
