<svg width="917" height="1024" viewBox="0 0 917 1024" fill="none" xmlns="http://www.w3.org/2000/svg">
<g clip-path="url(#clip0_37_195)">
<path d="M1200 511.43C1200.08 579.691 1188.46 647.461 1165.65 711.805C1165.55 712.104 1165.45 712.375 1165.34 712.674V712.688C1148.26 760.558 1125.13 806.052 1096.5 848.066C1091.54 855.384 1086.41 862.584 1081.1 869.665C1075.25 877.496 1069.23 885.17 1063.01 892.688C1057.28 899.622 1051.4 906.424 1045.37 913.092C1038.2 921.037 1030.82 928.777 1023.22 936.314C1005.34 954.103 986.36 970.747 966.385 986.148C962.879 988.868 959.335 991.54 955.753 994.164C947.416 1000.32 938.912 1006.25 930.242 1011.96C911.172 1024.56 891.391 1036.04 870.998 1046.36C867.478 1048.16 863.929 1049.92 860.366 1051.63C846.584 1058.28 832.523 1064.4 818.181 1069.98C814.09 1071.59 809.986 1073.14 805.839 1074.64C805.14 1074.91 804.442 1075.17 803.729 1075.41C754.551 1093.14 703.251 1104.33 651.15 1108.7C647.53 1109.02 643.905 1109.3 640.276 1109.52C636.428 1109.79 632.575 1110.01 628.717 1110.18C625.668 1110.33 622.632 1110.45 619.568 1110.53C618.941 1110.56 618.299 1110.59 617.672 1110.59C613.554 1110.72 609.421 1110.8 605.273 1110.83C603.52 1110.85 601.767 1110.86 600 1110.86C599.174 1110.86 598.347 1110.86 597.52 1110.85C585.563 1110.8 573.696 1110.41 561.919 1109.68C561.677 1109.66 561.435 1109.64 561.193 1109.64C556.974 1109.35 552.77 1109.05 548.58 1108.68C533.658 1107.43 518.898 1105.63 504.299 1103.27C500.936 1102.75 497.582 1102.18 494.238 1101.56C479.715 1099 465.383 1095.91 451.24 1092.29C447.036 1091.23 442.855 1090.11 438.698 1088.95C380.907 1072.86 325.875 1048.16 275.459 1015.68C266.794 1010.11 258.29 1004.32 249.948 998.308C248.922 997.596 247.91 996.855 246.898 996.115C226.634 981.355 207.314 965.344 189.05 948.175C180.399 940.059 172 931.687 163.853 923.058C58.4288 811.913 -0.229142 664.553 0.000181598 511.43C0.000181598 180.377 268.632 -88 600 -88C931.368 -88 1200 180.377 1200 511.43Z" fill="#F2F2F2"/>
<path d="M673.198 64.816C685.211 44.9657 699.446 23.7716 721.74 17.2899C747.558 9.78375 774.079 24.695 796.575 39.4094C863.851 83.4153 928.639 131.105 990.643 182.261L990.575 183.031C942.303 179.705 894.031 176.38 845.759 173.054C810.882 170.651 774.807 167.917 743.986 151.434C732.29 145.179 720.89 136.824 707.637 136.242C691.171 135.518 676.814 147.007 665.531 159.01C598.79 230.012 579.477 338.592 504.601 400.972C551.816 284.643 608.191 172.239 673.198 64.816Z" fill="white"/>
<path d="M262.953 667.044C270.333 657.733 273.349 655.552 280.629 646.156C339.907 569.562 395.623 490.38 447.778 408.612C483.203 353.078 516.872 296.477 548.784 238.811C563.977 211.395 578.753 183.764 593.113 155.919C604.256 134.328 615.15 112.608 625.796 90.7583C628.84 84.5177 631.798 78.2484 634.742 71.9648C641.678 57.1883 648.485 42.34 655.794 27.7643C664.122 11.1515 674.26 -6.26478 689.554 -17.4261C696.514 -22.7141 704.836 -25.9136 713.549 -26.6507C725.999 -27.4541 737.487 -22.3181 748.285 -16.7088C827.293 24.4503 901.26 76.0535 968.162 134.772C1035.24 193.623 1095.19 260.11 1146.8 332.878C1148.38 335.131 1152.11 332.979 1150.52 330.712C1144.24 321.846 1137.84 313.076 1131.32 304.401C1077.18 232.414 1014.74 167.047 945.287 109.652C910.904 81.2304 874.901 54.8227 837.46 30.5618C818.403 18.2241 798.989 6.46504 779.216 -4.71546C769.251 -10.3535 759.241 -15.9198 749.061 -21.1417C739.08 -26.2633 728.483 -30.8685 717.081 -31.0406C678.281 -31.6431 658.191 12.2561 644.392 41.7949C640.055 51.0912 635.666 60.3588 631.224 69.5977C614.438 104.674 597.005 139.43 578.926 173.866C567.768 195.127 556.366 216.263 544.72 237.276C508.477 302.709 469.954 366.817 429.153 429.6C375.102 512.765 321.483 586.232 259.909 664.002C258.214 666.154 261.244 669.224 262.953 667.044Z" fill="white"/>
<path d="M477.699 317.955L419.891 296.832L391.189 286.344C381.841 282.928 372.516 279.039 362.853 276.594C354.309 274.431 345.628 274.077 337.205 276.92C329.773 279.668 322.97 283.881 317.201 289.309C311.306 294.732 305.822 300.583 300.793 306.815C294.544 314.318 288.387 321.899 282.203 329.455C256.679 360.64 231.323 391.96 206.133 423.415C180.944 454.87 155.923 486.458 131.071 518.181C106.158 549.98 81.4162 581.913 56.8458 613.979C53.8359 617.907 50.8285 621.837 47.8238 625.769C46.1637 627.941 42.4205 625.8 44.104 623.597C68.8557 591.209 93.7799 558.953 118.877 526.83C144.035 494.63 169.367 462.567 194.873 430.641C220.379 398.715 246.057 366.927 271.907 335.278C278.347 327.393 284.798 319.517 291.259 311.65C296.71 305.014 302.099 298.306 308.077 292.129C319.05 280.791 332.76 270.771 349.171 270.499C358.819 270.339 368.157 273.398 377.122 276.638C386.786 280.131 396.427 283.689 406.079 287.216L464.291 308.487L478.844 313.805C481.427 314.748 480.311 318.909 477.699 317.955Z" fill="white"/>
<path d="M319.377 318.166C325.068 311.246 331.22 304 339.732 301.189L347.678 301.502C287.187 408.291 205.489 501.602 107.598 575.709C178.191 489.861 248.784 404.014 319.377 318.166Z" fill="white"/>
<path d="M705.809 207.604C705.813 218.516 703.136 229.262 698.012 238.899C692.889 248.536 685.476 256.769 676.424 262.875C667.372 268.982 656.958 272.775 646.096 273.922C635.234 275.069 624.257 273.535 614.127 269.454C603.998 265.373 595.026 258.87 587.999 250.516C580.972 242.162 576.105 232.212 573.826 221.541C571.546 210.869 571.924 199.802 574.925 189.31C577.926 178.818 583.46 169.223 591.04 161.366C591.146 161.26 591.253 161.153 591.36 161.046C591.894 160.486 592.428 159.926 592.988 159.393C592.992 159.393 592.995 159.392 592.998 159.391C593.002 159.389 593.005 159.388 593.007 159.385C593.01 159.383 593.012 159.38 593.013 159.376C593.014 159.373 593.015 159.37 593.015 159.366C593.709 158.726 594.403 158.086 595.123 157.473C604.765 149.028 616.639 143.538 629.323 141.66C642.008 139.783 654.965 141.597 666.644 146.887C678.322 152.176 688.228 160.716 695.174 171.485C702.12 182.253 705.812 194.793 705.809 207.604Z" fill="#2F2E41"/>
<path d="M662.208 262.555C684.059 240.724 684.059 205.331 662.208 183.5C640.357 161.67 604.93 161.67 583.079 183.5C561.228 205.331 561.228 240.724 583.079 262.555C604.93 284.385 640.357 284.385 662.208 262.555Z" fill="#9E616A"/>
<path d="M662.622 169.271C653.954 161.167 643.173 155.671 631.518 153.415C619.863 151.158 607.808 152.232 596.736 156.514C596.409 156.642 596.081 156.784 595.753 156.941C595.739 156.941 595.739 156.955 595.725 156.955C594.656 157.396 593.573 157.852 592.532 158.35L591.891 158.663V158.749C591.777 158.834 591.648 158.934 591.52 159.019C591.258 159.264 590.94 159.44 590.594 159.532C579.834 159.674 571.069 163.319 564.57 170.367C555.891 179.765 551.815 194.957 553.069 213.153L553.097 213.709L553.582 214.022C558.171 216.884 562.518 219.404 566.708 221.611C569.188 222.935 571.596 224.145 573.991 225.256C574.276 225.384 574.561 225.526 574.846 225.654C599.074 236.831 621.235 238.853 642.527 231.777L642.926 231.649L651.976 216.499C652.909 221.675 655.401 226.443 659.119 230.166C662.838 233.888 667.605 236.388 672.784 237.33L676.546 237.999L682.062 238.967L682.29 237.928C687.763 213.296 679.853 185.716 662.622 169.271Z" fill="#2F2E41"/>
<path d="M800.077 286.596C781.036 276.778 805.524 241.143 800.604 220.308C795.683 199.473 760.247 192.772 757.99 171.484C755.732 150.196 750.422 128.24 736.361 112.087C727.376 101.764 714.137 94.1445 700.507 95.4374C695.895 95.8748 691.431 97.3001 687.42 99.6163C683.41 101.932 679.945 105.085 677.264 108.859C674.583 112.633 672.747 116.941 671.882 121.488C671.017 126.034 671.143 130.714 672.252 135.208C668.371 129.714 658.327 130.905 655.842 137.154C653.631 142.709 658.514 149.438 664.26 149.93C671.779 159.206 680.389 169.051 692.168 170.922C695.962 171.525 700.227 171.084 702.999 168.425C705.77 165.766 705.985 160.451 702.698 158.464C717.501 164.338 726.18 180.328 728.376 196.09C730.573 211.851 727.534 227.798 725.531 243.585C723.529 259.372 722.666 275.979 728.862 290.639C736.183 307.96 753.036 320.374 771.429 324.355C789.823 328.336 809.411 324.445 826.06 315.679C842.709 306.912 856.592 293.529 867.934 278.524C848.397 292.383 821.368 297.576 800.077 286.596Z" fill="#2F2E41"/>
<path d="M583.743 521.402L545.095 785.063L756.063 769.177L692.917 509.797L583.743 521.402Z" fill="#FFB8B8"/>
<path d="M804.442 1072.72C804.254 1073.63 804.016 1074.52 803.729 1075.41C779.382 1084.2 754.483 1091.39 729.192 1096.92C723.862 1079.41 713.644 1046.25 704.694 1019.12C697.382 996.983 690.926 978.872 688.675 976.608C682.418 970.386 688.675 962.085 688.675 962.085L661.952 879.091L649.81 841.388L645.649 920.595L639.606 1035.33L639.435 1038.54C639.435 1038.54 631.112 1063.45 635.273 1067.61C639.435 1071.76 631.112 1088.38 631.112 1088.38L628.717 1110.18C625.668 1110.33 622.632 1110.45 619.568 1110.53L618.527 1110.86L617.672 1110.59C613.554 1110.72 609.42 1110.8 605.273 1110.83C603.52 1110.85 601.767 1110.86 600 1110.86C599.173 1110.86 598.347 1110.86 597.52 1110.85C585.563 1110.8 573.696 1110.41 561.919 1109.68L554.608 1050.23L547.055 988.811C547.055 988.811 555.363 972.223 547.055 963.922C542.052 958.925 544.561 951.663 547.368 946.68C545.629 938.977 543.249 927.13 540.043 909.589C539.929 909.005 539.829 908.407 539.715 907.809C538.703 902.242 537.796 896.784 536.993 891.435C535.568 882.024 534.456 872.982 533.601 864.326C530.701 836.286 530.3 808.045 532.404 779.935C533.202 769.94 534.2 762.622 534.855 758.393C534.912 757.994 535.525 755.759 536.523 752.228C538.09 746.575 540.67 737.605 543.563 727.567C545.102 722.242 546.727 716.618 548.337 711.022C551.145 701.326 553.938 691.715 556.19 683.941V683.898C558.171 677.078 559.753 671.696 560.58 668.877C560.979 667.496 561.192 666.741 561.192 666.741C561.192 666.741 561.634 666.642 562.475 666.457C565.083 665.859 571.525 664.421 580.447 662.498C589.753 660.534 601.739 658.042 614.907 655.507C626.181 653.343 638.323 651.136 650.394 649.157C654.727 648.46 659.06 647.776 663.335 647.135C689.744 643.206 713.986 640.97 725.473 643.519C726.268 643.688 727.053 643.902 727.824 644.16C728.604 644.417 729.354 644.756 730.062 645.17C730.418 645.384 733.867 658.825 738.271 676.338C738.314 676.509 738.356 676.694 738.399 676.865C739.725 682.161 741.135 687.8 742.575 693.566C744.043 699.447 745.525 705.441 746.979 711.279C751.297 728.621 755.287 744.667 757.34 752.527C758.124 755.574 758.637 757.382 758.751 757.581C763.568 765.598 767.501 785.246 770.694 809.893C773.544 831.891 775.81 857.876 777.563 883.12C778.432 895.607 779.173 907.923 779.8 919.485C781.924 958.384 782.779 988.754 782.779 988.754C782.779 988.754 785.957 1014.07 792.271 1026.02C793.048 1027.56 794.041 1028.98 795.221 1030.24C799.425 1034.44 799.91 1038.09 799.354 1040.68C799.111 1041.9 798.605 1043.06 797.872 1044.07C797.705 1044.32 797.519 1044.55 797.316 1044.77C796.773 1047.34 796.868 1050.01 797.593 1052.54C798.319 1055.08 799.652 1057.39 801.477 1059.29C805.511 1063.35 805.183 1069.16 804.442 1072.72Z" fill="#2F2E41"/>
<path d="M735.335 436.836C735.093 435.042 734.836 433.234 734.565 431.411C734.409 430.244 734.223 429.076 734.052 427.923C732.242 416.276 739.781 406.309 730.019 398.251C727.736 396.395 725.876 394.075 724.561 391.445L722.323 386.945L718.204 378.602L709.197 360.462L707.644 357.344C707.204 356.458 706.699 355.606 706.133 354.795C704.449 352.353 702.256 350.303 699.705 348.787L677.33 335.46C673.872 333.41 671.088 330.397 669.321 326.789L668.765 325.65C666.299 320.595 661.881 308.507 656.651 303.253L656.636 303.239C655.497 301.937 653.95 301.059 652.247 300.747L629.972 298.54C626.409 298.178 622.814 298.748 619.538 300.193C616.263 301.639 613.419 303.91 611.287 306.784L610.675 309.561L607.097 325.835L606.898 325.878C605.843 326.12 604.789 326.362 603.748 326.661C580.646 332.968 571.012 413.656 571.012 413.656C571.012 413.656 554.836 440.325 561.192 456.827L572.537 483.438C572.625 483.639 572.692 483.849 572.736 484.065C573.762 486.961 574.123 490.051 573.791 493.106L573.805 494.145L573.834 496.438L573.919 502.318L574.19 521.824L574.532 546.243L574.831 567.045L574.931 572.584L556.247 653.813C555.941 656.482 556.165 659.185 556.906 661.767C557.647 664.35 558.891 666.761 560.565 668.863L560.58 668.877C560.99 669.403 561.428 669.906 561.891 670.386L561.905 670.401C562.347 670.856 562.803 671.269 563.273 671.682C565.523 673.649 568.176 675.1 571.047 675.933C573.918 676.767 576.936 676.964 579.891 676.509L582.385 676.124H582.399L618.599 670.7H618.627L622.817 670.073H622.846L663.363 663.993H663.392L670.332 662.94C670.888 662.869 671.43 662.797 671.986 662.755L709.083 660.206C709.935 660.149 710.782 660.039 711.62 659.879H711.634C714.896 659.234 717.955 657.815 720.552 655.74C723.149 653.666 725.208 650.998 726.556 647.961C727.116 646.744 727.542 645.469 727.824 644.16C728.146 642.743 728.323 641.298 728.352 639.845L728.765 604.933L730.176 492.109C730.205 488.345 731.28 484.662 733.283 481.473C738.428 473.272 737.843 455.702 735.335 436.836Z" fill="#BAE2F5"/>
<path d="M673.135 738.165C672.614 735.288 672.73 732.331 673.475 729.503C674.221 726.676 675.578 724.046 677.452 721.799C679.325 719.552 681.668 717.742 684.317 716.498C686.966 715.254 689.856 714.605 692.783 714.597L715.927 647.38L738.494 676.64L713.056 735.985C712.743 740.898 710.637 745.526 707.137 748.992C703.637 752.458 698.986 754.521 694.065 754.79C689.144 755.058 684.296 753.514 680.438 750.451C676.581 747.387 673.982 743.015 673.135 738.165Z" fill="#9E616A"/>
<path d="M761.444 596.746L756.242 609.845L748.974 690.875C746.716 691.442 744.558 692.349 742.575 693.566C738.265 696.229 734.984 700.269 733.263 705.03C731.543 709.792 731.484 714.994 733.097 719.793L735.235 726.2L719.344 721.317L693.221 713.3L662.423 703.846L667.639 686.945C668.846 683.062 669.09 678.944 668.351 674.946C667.611 670.947 665.909 667.189 663.392 663.993C662.769 663.199 662.098 662.443 661.383 661.729L663.335 647.135L664.489 638.464L650.394 649.157L622.831 670.073H622.817L619.169 672.85C619.169 672.85 618.969 672.109 618.599 670.7C617.9 667.98 616.589 662.769 614.907 655.507C606.579 619.322 600.444 582.668 596.537 545.745C595.682 537.43 594.941 528.915 594.342 520.272C593.729 511.374 593.273 502.346 593.031 493.262C590.979 419.323 602.352 341.81 649.881 302.171C652.18 302.187 654.462 302.552 656.651 303.253C675.891 309.162 696.998 338.037 711.592 358.697C715.04 363.58 718.119 367.994 720.727 371.54L727.04 380.125C735.661 391.856 741.627 405.318 744.527 419.579C745.14 422.598 745.62 425.654 745.967 428.749L752.865 492.138V508.469L761.444 596.746Z" fill="#BAE2F5"/>
<path d="M34.7597 710.378C47.1406 725.034 60.5319 738.808 74.8357 751.598L1126.02 753.021C1140.32 740.231 1153.71 726.458 1166.09 711.802L34.7597 710.378Z" fill="#CCCCCC"/>
<path d="M275.458 954.496V1015.68C266.793 1010.11 258.29 1004.32 249.948 998.308V954.496H275.458Z" fill="#CACACA"/>
<path d="M374.295 944.302V974.871C374.293 980.503 372.054 985.903 368.07 989.886C364.086 993.869 358.682 996.109 353.045 996.115H246.898C226.634 981.355 207.314 965.344 189.05 948.175C180.399 940.059 172 931.687 163.853 923.058H353.045C358.681 923.066 364.084 925.307 368.067 929.29C372.051 933.272 374.291 938.671 374.295 944.302Z" fill="#3F3D56"/>
<path d="M623.059 1109.42L619.568 1110.53L618.527 1110.86L617.672 1110.59C613.554 1110.72 609.42 1110.8 605.273 1110.83C603.52 1110.85 601.767 1110.86 600 1110.86C599.173 1110.86 598.347 1110.86 597.52 1110.85C585.563 1110.8 573.696 1110.41 561.919 1109.68L562.204 1112L561.192 1109.64C556.974 1109.35 552.77 1109.05 548.579 1108.68L515.416 1053.2L447.164 939.019L439.254 925.792C439.254 925.792 412.276 933.766 374.095 941.411C345.321 947.192 310.19 952.759 275.458 954.582C266.893 955.037 258.356 955.265 249.948 955.194C228.214 955.052 207.335 953.016 189.05 948.175C180.399 940.059 172 931.687 163.853 923.058C149.964 908.386 136.826 893.022 124.489 877.026C124.323 871.155 124.623 865.28 125.387 859.456C125.515 858.488 125.644 857.505 125.8 856.509L129.691 790.5L158.594 786.684L202.575 780.875L250.219 774.582L255.463 815.616C255.463 815.616 292.561 813.737 339.563 814.363C415.055 815.389 516.071 822.906 529.753 855.17C531.036 858.203 532.318 861.264 533.601 864.326C560.166 927.899 584.565 995.631 601.14 1043.76C604.304 1052.93 607.169 1061.37 609.72 1068.94C618.143 1093.96 623.059 1109.42 623.059 1109.42Z" fill="#2F2E41"/>
<path d="M542.252 891.549C541.553 897.586 540.817 903.599 540.043 909.589C533.202 962.569 523.782 1013.17 515.416 1053.2C511.325 1072.73 507.477 1089.73 504.299 1103.27C500.936 1102.75 497.582 1102.18 494.238 1101.56C479.715 1099 465.382 1095.91 451.24 1092.29C447.036 1091.23 442.855 1090.11 438.698 1088.95L447.164 939.019L449.957 889.428L536.993 891.435L542.252 891.549Z" fill="#2F2E41"/>
<path d="M682.197 659.649C685.826 657.624 689.856 656.419 694.002 656.118C698.148 655.817 702.31 656.428 706.194 657.908C710.078 659.387 713.59 661.7 716.483 664.683C719.376 667.665 721.579 671.245 722.937 675.17L823.986 675.29L795.026 719.051L703.508 712.228C696.757 714.071 689.563 713.375 683.291 710.272C677.019 707.17 672.104 701.877 669.477 695.396C666.85 688.915 666.694 681.696 669.038 675.108C671.383 668.52 676.064 663.019 682.197 659.649Z" fill="#FFB6B6"/>
<path d="M737.289 718.83L919.28 736.893L919.76 736.279C920.678 735.107 1011.78 618.606 1027.08 590.873C1036.5 574.211 1039.93 554.832 1036.8 535.954L1036.7 535.493L1036.34 535.187C1028.91 528.973 1019.59 525.471 1009.91 525.259C1000.23 525.047 990.766 528.137 983.079 534.02C946.114 562.621 916.31 599.414 896.017 641.495L884.502 665.445L750.948 671.17L737.289 718.83Z" fill="#BAE2F5"/>
<path d="M1045.37 913.092C1038.2 921.036 1030.82 928.777 1023.22 936.314C1005.34 954.102 986.36 970.747 966.385 986.148H852.656C849.636 986.148 846.651 985.505 843.901 984.26C841.151 983.015 838.698 981.197 836.708 978.929L836.694 978.886C834.322 976.213 832.674 972.978 831.905 969.489L831.891 969.461C831.569 967.963 831.407 966.436 831.406 964.905V934.335C831.41 928.704 833.649 923.305 837.633 919.323C841.617 915.34 847.02 913.099 852.655 913.092H1045.37Z" fill="#3F3D56"/>
<path d="M1092.23 793.775L1079.9 846.542C1081.11 854.187 1081.51 861.937 1081.1 869.665C1075.25 877.496 1069.23 885.17 1063.01 892.688C1057.28 899.622 1051.4 906.423 1045.37 913.092C1038.2 921.037 1030.82 928.777 1023.22 936.314C1003.44 942.522 980.124 945.057 955.753 945.227C947.344 945.299 938.808 945.071 930.242 944.615C895.511 942.793 860.38 937.225 831.606 931.445C823.995 929.936 816.841 928.398 810.257 926.903C797.786 924.098 787.354 921.478 779.8 919.485C771.292 917.263 766.446 915.825 766.446 915.825L734.081 969.973L704.694 1019.12L651.15 1108.7C647.53 1109.02 643.905 1109.3 640.275 1109.52C636.428 1109.79 632.575 1110.01 628.717 1110.18C625.667 1110.33 622.632 1110.45 619.568 1110.53L618.527 1110.86L617.672 1110.59L603.934 1106.22L599.302 1104.75L582.641 1099.46C582.641 1099.46 586.361 1087.75 592.874 1068.23C595.268 1061.07 598.033 1052.84 601.14 1043.76C612.356 1010.92 627.905 966.827 645.649 920.595C650.907 906.869 656.352 892.944 661.952 879.091C666.541 867.714 671.216 856.381 675.948 845.204C684.171 825.825 723.905 815.374 770.694 809.893C773.074 809.622 775.468 809.352 777.876 809.095C801.72 806.589 827.017 805.294 850.675 804.696C862.518 804.397 873.948 804.283 884.58 804.269C888.014 804.269 891.354 804.278 894.599 804.297H894.613C903.378 804.34 911.444 804.468 918.542 804.61C919.924 804.639 921.264 804.682 922.575 804.71H922.589C923.473 804.724 924.342 804.753 925.197 804.767C940.717 805.166 950.237 805.65 950.237 805.65L953.929 776.718L954.684 770.88L955.397 765.327V765.313L955.482 764.615L956.067 764.601L966.328 764.402L1052.58 762.722L1099.7 761.796L1092.23 793.775Z" fill="#2F2E41"/>
<path d="M870.998 1046.36C867.477 1048.16 863.929 1049.92 860.366 1051.63C846.584 1058.28 832.523 1064.4 818.181 1069.98C814.09 1071.59 809.986 1073.14 805.838 1074.64C805.382 1074 804.912 1073.36 804.442 1072.72C784.66 1045.59 759.52 1009.8 734.081 969.973C723.435 953.315 712.732 935.944 702.342 918.203L777.563 883.12L786 879.19L810.257 926.903L831.891 969.461L836.708 978.929L870.998 1046.36Z" fill="#2F2E41"/>
<path d="M980.183 453.127C1018.46 453.127 1049.48 422.13 1049.48 383.893C1049.48 345.656 1018.46 314.658 980.183 314.658C941.91 314.658 910.883 345.656 910.883 383.893C910.883 422.13 941.91 453.127 980.183 453.127Z" fill="#FFB6B6"/>
<path d="M977.891 450.121C994.093 457.888 1014.04 455.257 1029.5 446.119C1044.97 436.981 1056.36 422.079 1064.31 405.98C1070.14 394.19 1074.37 380.687 1071 367.978C1067.62 355.269 1054.16 344.619 1041.55 348.384C1050.19 341.434 1049.19 327.101 1042.21 318.49C1035.22 309.879 1024.21 305.738 1013.57 302.617C998.121 298.088 981.89 294.891 965.961 297.207C950.031 299.524 934.347 308.14 926.851 322.373C921.648 323.712 916.147 323.29 911.21 321.171C906.273 319.053 902.179 315.359 899.568 310.667C897.832 315.177 897.632 320.133 898.999 324.769C900.366 329.404 903.225 333.46 907.131 336.309L885.557 324.615C880.058 332.231 885.055 343.847 893.404 348.162C901.754 352.477 911.846 351.326 920.959 349.02C930.072 346.715 919.32 365.941 928.719 366.126C938.117 366.312 948.284 371.226 950.975 380.224C952.384 384.937 951.563 389.998 951.979 394.899C952.395 399.801 954.745 405.238 959.5 406.515C962.504 407.322 965.791 406.253 968.769 407.149C972.462 408.259 974.713 412.206 975.038 416.045C975.363 419.884 974.158 423.669 972.968 427.334C968.266 441.817 983.357 433.699 978.655 448.182L977.891 450.121Z" fill="#2F2E41"/>
<path d="M1113.86 654.625C1113.29 597.444 1110.7 558.474 1106.17 538.782C1094 485.844 1037.77 476.191 1028.96 474.995C1028.03 472.5 1026.58 470.224 1024.73 468.309C1022.87 466.395 1020.64 464.883 1018.17 463.866C1015.71 462.85 1013.06 462.351 1010.39 462.402C1007.72 462.452 1005.1 463.051 1002.67 464.159L962.722 482.441C954.618 486.162 947.366 491.507 941.415 498.145C935.465 504.782 930.944 512.571 928.133 521.027L922.204 539.11L919.226 660.462L929.059 711.506L929.074 711.535L935.701 745.92L931.14 752.755L905.102 791.767L904.66 792.451L904.646 792.465L903.506 794.159C905.088 795.028 906.656 795.882 908.195 796.737C912.185 798.929 916.076 801.079 919.867 803.187C920.779 803.699 921.677 804.198 922.575 804.71H922.589C923.159 805.023 923.729 805.337 924.285 805.65C938.508 813.595 951.454 820.956 963.121 827.733C964.746 828.673 966.356 829.613 967.938 830.538C1021.81 862.019 1049.12 881.298 1063.01 892.688C1069.23 885.17 1075.25 877.496 1081.1 869.665C1086.4 862.589 1091.53 855.389 1096.5 848.066C1097.37 842.342 1097.96 836.618 1098.53 831.008C1099.21 824.259 1099.92 817.268 1101.12 810.391C1101.65 807.344 1099.62 804.454 1097.67 801.663C1095.86 799.057 1094.15 796.609 1094.51 794.302C1094.88 791.924 1097.5 789.333 1100.05 786.813C1102.83 784.05 1105.71 781.203 1106.12 778.198C1107.26 769.826 1108.28 761.426 1109.16 752.997C1110.61 739.285 1111.73 725.531 1112.51 711.734C1113.61 692.684 1114.06 673.647 1113.86 654.625Z" fill="#BAE2F5"/>
<path d="M850.065 856.466C851.24 852.482 853.274 848.804 856.026 845.69C858.777 842.577 862.178 840.104 865.99 838.446C869.801 836.788 873.93 835.986 878.086 836.094C882.242 836.203 886.323 837.221 890.042 839.076L962.319 768.525L972.277 820.033L902.115 879.133C898.582 885.169 892.955 889.7 886.301 891.868C879.647 894.036 872.428 893.69 866.013 890.896C859.597 888.102 854.43 883.054 851.491 876.708C848.551 870.362 848.044 863.16 850.065 856.466Z" fill="#FFB6B6"/>
<path d="M930.873 860.236L1073.55 745.923L1073.46 745.15C1073.29 743.67 1056.79 596.756 1048.3 566.243C1043.36 547.756 1032.24 531.514 1016.78 520.213L1016.38 519.956L1015.91 519.991C1006.25 520.739 997.143 524.752 990.077 531.368C983.012 537.984 978.414 546.808 977.042 556.385C970.665 602.658 975.139 649.779 990.113 694.028L998.66 719.189L907.252 816.637L930.873 860.236Z" fill="#BAE2F5"/>
<path d="M200.258 451.884C234.409 451.884 262.094 424.226 262.094 390.107C262.094 355.988 234.409 328.329 200.258 328.329C166.107 328.329 138.422 355.988 138.422 390.107C138.422 424.226 166.107 451.884 200.258 451.884Z" fill="#A0616A"/>
<path d="M117.18 860.644L116.842 860.171C98.8293 834.976 125.921 774.434 130.007 765.658C125.155 764.085 120.999 760.88 118.246 756.589C115.494 752.299 114.315 747.187 114.911 742.126L116.672 727.167L118.508 712.495L105.355 699.354L105.318 699.026L97.7483 632.855L86.7422 588.904C82.5953 572.29 82.9487 554.872 87.7663 538.438C92.5838 522.005 101.692 507.149 114.155 495.394L139.596 491.358L170.514 461.597H220.372L237.468 477.914C271.078 505.439 279.057 493.482 316.956 545.295L289.82 616.721L304.988 722.067L304.997 741.132L312.897 749.903C315.743 753.063 317.811 756.843 318.936 760.942C320.061 765.041 320.213 769.346 319.378 773.514L318.339 778.703C322.355 780.422 325.899 783.078 328.674 786.448C331.45 789.818 333.376 793.804 334.292 798.072L337.067 811.007C339.44 814.136 355.109 835.009 355.109 840.715C355.109 841.571 354.476 842.399 353.118 843.318C342.44 850.542 283.42 865.269 257.299 854.826C229.475 843.711 118.869 860.385 117.754 860.555L117.18 860.644Z" fill="#3F3D56"/>
<path d="M85.765 610.043L137.18 599.988C156.195 628.358 166.403 705.931 166.403 705.931L223.248 823.709C226.742 825.829 229.611 828.837 231.563 832.426C233.515 836.015 234.48 840.056 234.36 844.139C234.24 848.221 233.039 852.199 230.879 855.667C228.719 859.135 225.678 861.969 222.065 863.881C218.453 865.793 214.397 866.714 210.312 866.55C206.227 866.386 202.259 865.144 198.811 862.95C195.363 860.755 192.558 857.687 190.683 854.058C188.808 850.428 187.93 846.367 188.137 842.288L113.996 702.743L85.765 610.043Z" fill="#A0616A"/>
<path d="M85.477 622.231L84.0153 545.885L108.211 513.546C112.984 507.215 119.435 502.343 126.834 499.482C134.233 496.621 142.286 495.885 150.082 497.356C160.636 499.421 170.012 505.413 176.313 514.121C182.614 522.829 185.371 533.602 184.026 544.262C179.919 576.59 170.595 617.046 149.501 626.199L149.287 626.292L171.149 702.678L90.0738 713.993L85.477 622.231Z" fill="#3F3D56"/>
<path d="M390.84 615.484C390.84 615.484 329.137 567.301 295.672 560.379L266.053 603.554L346.158 652.598L502.116 697.649C504.848 700.679 508.333 702.934 512.218 704.183C516.103 705.433 520.25 705.633 524.237 704.764C528.225 703.895 531.912 701.987 534.923 699.234C537.934 696.482 540.162 692.982 541.382 689.09C542.601 685.199 542.768 681.055 541.866 677.078C540.964 673.101 539.025 669.434 536.245 666.448C533.466 663.462 529.945 661.264 526.04 660.077C522.135 658.89 517.986 658.756 514.013 659.689L390.84 615.484Z" fill="#A0616A"/>
<path d="M282.284 625.167L217.981 583.891L204.554 545.809C201.945 538.324 201.484 530.258 203.223 522.525C204.961 514.791 208.83 507.697 214.393 502.045C221.984 494.434 232.186 489.987 242.934 489.603C253.682 489.219 264.176 492.926 272.292 499.976C296.89 521.377 328.59 528.549 324.462 551.152L336.305 552.88L396.866 598.83L361.153 672.422L282.284 625.167Z" fill="#3F3D56"/>
<path d="M130.118 349.515C137.062 338.783 150.092 331.631 162.723 333.64C163.899 325.587 167.264 318.01 172.452 311.734C177.639 305.459 184.451 300.726 192.144 298.05C199.838 295.374 208.119 294.859 216.086 296.559C224.053 298.26 231.4 302.111 237.327 307.695C241.046 304.738 246.452 304.583 250.867 306.341C255.214 308.316 258.997 311.349 261.867 315.162C269.115 324.193 273.777 335.018 275.356 346.485C276.934 357.952 275.371 369.632 270.833 380.282C272.376 374.676 266.752 369.401 261.069 368.143C255.387 366.885 249.426 368.075 243.664 367.256C236.278 366.206 229.639 361.925 222.242 360.962C216.025 360.152 209.773 361.745 203.71 363.341C197.647 364.937 191.412 366.565 185.186 365.826C178.96 365.088 170.94 388.66 171.048 405.263C171.068 408.409 170.419 412.449 167.342 413.116C163.551 413.939 161.355 408.712 157.747 407.288C154.533 406.019 150.68 408.371 149.561 411.637C149.106 413.308 149.058 415.063 149.419 416.756C149.78 418.45 150.541 420.032 151.639 421.372C153.856 424.029 156.489 426.31 159.434 428.128L157.948 429.363C155.477 432.625 150.35 432.766 146.788 430.748C143.226 428.73 140.885 425.139 138.775 421.633C132.185 410.682 126.404 399.013 124.078 386.448C121.752 373.883 123.175 360.247 130.118 349.515Z" fill="#2F2E41"/>
<path opacity="0.2" d="M673.162 453.334C679.434 479.441 682.328 506.244 681.773 533.088C681.238 559.934 677.309 586.605 670.076 612.466C665.995 627.07 660.847 641.355 654.674 655.207C653.563 657.696 657.246 659.871 658.366 657.363C669.511 632.403 677.392 606.114 681.814 579.143C686.254 552.166 687.249 524.735 684.777 497.508C683.378 482.244 680.874 467.101 677.285 452.198C676.64 449.527 672.517 450.658 673.162 453.334Z" fill="black"/>
<path d="M648.684 715.134C649.312 716.96 650.503 718.541 652.086 719.649C653.669 720.757 655.563 721.335 657.496 721.3L695.252 720.33C697.198 720.292 699.081 719.626 700.617 718.43C702.153 717.235 703.261 715.575 703.775 713.699L709.118 656.622C711.014 657.48 713.077 657.903 715.158 657.862C716.966 657.816 718.747 657.416 720.399 656.683C722.052 655.95 723.544 654.899 724.79 653.59C726.036 652.281 727.012 650.739 727.662 649.054C728.311 647.368 728.623 645.571 728.577 643.765C728.532 641.959 728.131 640.18 727.397 638.528C726.663 636.877 725.611 635.387 724.301 634.142C722.991 632.897 721.448 631.922 719.761 631.273C718.073 630.624 716.274 630.313 714.467 630.358C713.635 630.356 712.806 630.442 711.992 630.615C711.108 629.659 710.033 628.899 708.837 628.383C707.64 627.868 706.349 627.608 705.046 627.621L646.969 629.119C646.488 629.137 646.008 629.196 645.537 629.297C644.263 629.534 643.055 630.041 641.994 630.784C640.933 631.527 640.044 632.488 639.386 633.603C638.728 634.718 638.316 635.96 638.179 637.248C638.042 638.535 638.183 639.836 638.592 641.064L648.684 715.134ZM710.214 652.746L714.016 639.145C714.448 637.574 714.458 635.916 714.045 634.34C714.229 634.34 714.392 634.252 714.576 634.252C717.183 634.198 719.705 635.179 721.589 636.98C723.473 638.781 724.565 641.255 724.626 643.859C724.687 646.463 723.712 648.985 721.914 650.872C720.117 652.759 717.644 653.857 715.037 653.925C713.352 653.978 711.684 653.57 710.214 652.746Z" fill="#2F2E41"/>
<path d="M645.537 629.297C646.774 636.365 660.685 641.334 677.412 640.47C692.794 639.762 705.371 634.366 707.675 627.971C706.822 627.719 705.935 627.601 705.046 627.621L646.969 629.119C646.488 629.137 646.008 629.196 645.537 629.297Z" fill="#3F3D56"/>
<path d="M522.929 638.217C523.337 636.988 523.478 635.687 523.341 634.4C523.204 633.113 522.793 631.87 522.135 630.755C521.477 629.64 520.587 628.679 519.526 627.936C518.465 627.194 517.257 626.687 515.983 626.449C515.512 626.349 515.033 626.289 514.551 626.272L456.474 624.773C455.171 624.76 453.88 625.02 452.684 625.536C451.487 626.051 450.412 626.812 449.528 627.768C448.714 627.594 447.885 627.508 447.053 627.51C443.403 627.419 439.865 628.78 437.219 631.294C434.573 633.808 433.035 637.27 432.943 640.917C432.851 644.564 434.214 648.098 436.73 650.742C439.247 653.386 442.712 654.922 446.362 655.014C448.443 655.056 450.506 654.632 452.402 653.774L457.745 710.851C458.259 712.728 459.367 714.387 460.903 715.583C462.44 716.778 464.322 717.444 466.269 717.482L504.024 718.453C505.957 718.487 507.851 717.909 509.434 716.801C511.017 715.693 512.208 714.113 512.836 712.286L522.929 638.217ZM446.483 651.077C443.876 651.009 441.403 649.911 439.606 648.024C437.808 646.137 436.833 643.615 436.894 641.011C436.955 638.407 438.047 635.933 439.931 634.132C441.815 632.331 444.337 631.35 446.944 631.404C447.128 631.405 447.291 631.492 447.475 631.492C447.062 633.069 447.072 634.726 447.504 636.297L451.306 649.899C449.836 650.722 448.168 651.13 446.483 651.077Z" fill="#2F2E41"/>
<path d="M515.983 626.449C514.746 633.517 500.835 638.486 484.108 637.622C468.727 636.914 456.15 631.518 453.846 625.123C454.698 624.871 455.585 624.753 456.474 624.773L514.551 626.272C515.033 626.289 515.512 626.349 515.983 626.449Z" fill="#3F3D56"/>
<path d="M460.944 502.462C463.853 500.338 467.194 498.878 470.729 498.184C474.265 497.489 477.91 497.578 481.408 498.443C484.905 499.308 488.171 500.929 490.973 503.192C493.776 505.454 496.048 508.303 497.63 511.538L584.585 501.028L564.273 541.722L484.812 545.463C479.197 547.757 472.935 547.914 467.212 545.903C461.489 543.893 456.703 539.855 453.76 534.554C450.818 529.254 449.924 523.059 451.248 517.145C452.572 511.23 456.022 506.005 460.944 502.462Z" fill="#9E616A"/>
<path d="M744.527 419.58C741.962 424.606 738.841 430.458 735.335 436.836C723.021 459.318 706.105 488.336 693.078 510.42C681.948 529.257 673.639 543.068 673.411 543.452L673.055 544.022L596.537 545.745L580.119 546.115L574.532 546.243L514.575 547.596L515.145 544.036L520.746 508.754L521.316 505.151L573.834 496.438L593.031 493.262L635.615 486.2L643.012 464.387C656.04 426.049 677.81 391.26 706.603 362.769C707.444 361.957 708.299 361.188 709.197 360.462C709.981 359.836 710.779 359.238 711.591 358.697C715.04 363.58 718.119 367.994 720.727 371.54L727.04 380.125C735.661 391.856 741.627 405.318 744.527 419.58Z" fill="#BAE2F5"/>
<path d="M426.356 549.97C426.984 551.797 428.175 553.377 429.758 554.485C431.342 555.593 433.236 556.171 435.168 556.137L472.924 555.166C474.871 555.128 476.753 554.462 478.289 553.267C479.826 552.071 480.934 550.412 481.448 548.535L486.79 491.458C488.686 492.316 490.75 492.74 492.83 492.698C496.481 492.606 499.946 491.07 502.462 488.426C504.979 485.782 506.341 482.248 506.249 478.601C506.158 474.954 504.62 471.492 501.973 468.978C499.327 466.464 495.79 465.103 492.139 465.194C491.307 465.192 490.478 465.278 489.665 465.452C488.78 464.496 487.705 463.735 486.509 463.22C485.313 462.704 484.021 462.444 482.718 462.457L424.642 463.955C424.16 463.973 423.68 464.033 423.209 464.133C421.935 464.37 420.727 464.877 419.666 465.62C418.605 466.363 417.716 467.324 417.058 468.439C416.4 469.554 415.988 470.797 415.851 472.084C415.715 473.371 415.855 474.672 416.264 475.901L426.356 549.97ZM487.886 487.583L491.688 473.981C492.12 472.41 492.13 470.753 491.717 469.176C491.901 469.176 492.064 469.088 492.249 469.088C494.855 469.034 497.377 470.015 499.261 471.816C501.145 473.617 502.237 476.091 502.298 478.695C502.359 481.299 501.384 483.821 499.587 485.708C497.789 487.595 495.316 488.693 492.71 488.761C491.024 488.814 489.357 488.406 487.886 487.583Z" fill="#CCCCCC"/>
<path d="M423.209 464.133C424.446 471.201 438.357 476.17 455.084 475.306C470.466 474.598 483.043 469.202 485.347 462.807C484.494 462.555 483.607 462.437 482.718 462.457L424.642 463.955C424.16 463.973 423.68 464.033 423.209 464.133Z" fill="#3F3D56"/>
<circle cx="497.225" cy="681.633" r="1.77551" fill="white"/>
<circle cx="493.674" cy="678.082" r="1.77551" fill="white"/>
<circle cx="497.225" cy="678.082" r="1.77551" fill="white"/>
<circle cx="497.225" cy="674.531" r="1.77551" fill="white"/>
<circle cx="493.674" cy="674.531" r="1.77551" fill="white"/>
<circle cx="497.225" cy="670.98" r="1.77551" fill="white"/>
<circle cx="493.674" cy="670.98" r="1.77551" fill="white"/>
<circle cx="497.225" cy="667.429" r="1.77551" fill="white"/>
<circle cx="493.674" cy="667.429" r="1.77551" fill="white"/>
<circle cx="497.225" cy="663.878" r="1.77551" fill="white"/>
<circle cx="497.225" cy="660.327" r="1.77551" fill="white"/>
<circle cx="493.674" cy="663.878" r="1.77551" fill="white"/>
<circle cx="493.674" cy="660.327" r="1.77551" fill="white"/>
<circle cx="493.082" cy="656.776" r="1.77551" fill="white"/>
<circle cx="489.531" cy="656.776" r="1.77551" fill="white"/>
<circle cx="688.224" cy="683.633" r="1.77551" fill="white"/>
<circle cx="684.674" cy="680.082" r="1.77551" fill="white"/>
<circle cx="688.224" cy="680.082" r="1.77551" fill="white"/>
<circle cx="688.224" cy="676.531" r="1.77551" fill="white"/>
<circle cx="684.674" cy="676.531" r="1.77551" fill="white"/>
<circle cx="688.224" cy="672.98" r="1.77551" fill="white"/>
<circle cx="684.674" cy="672.98" r="1.77551" fill="white"/>
<circle cx="688.224" cy="669.429" r="1.77551" fill="white"/>
<circle cx="684.674" cy="669.429" r="1.77551" fill="white"/>
<circle cx="688.224" cy="665.878" r="1.77551" fill="white"/>
<circle cx="688.224" cy="662.327" r="1.77551" fill="white"/>
<circle cx="684.674" cy="665.878" r="1.77551" fill="white"/>
<circle cx="684.674" cy="662.327" r="1.77551" fill="white"/>
<circle cx="684.082" cy="658.776" r="1.77551" fill="white"/>
<circle cx="680.531" cy="658.776" r="1.77551" fill="white"/>
<ellipse cx="474.616" cy="682.389" rx="1.53877" ry="1.61111" fill="white"/>
<ellipse cx="477.694" cy="682.389" rx="1.53877" ry="1.61111" fill="white"/>
<ellipse cx="480.771" cy="682.389" rx="1.53877" ry="1.61111" fill="white"/>
<ellipse cx="483.849" cy="682.389" rx="1.53877" ry="1.61111" fill="white"/>
<ellipse cx="474.616" cy="679.167" rx="1.53877" ry="1.61111" fill="white"/>
<ellipse cx="480.771" cy="679.167" rx="1.53877" ry="1.61111" fill="white"/>
<ellipse cx="477.694" cy="679.167" rx="1.53877" ry="1.61111" fill="white"/>
<ellipse cx="483.849" cy="679.167" rx="1.53877" ry="1.61111" fill="white"/>
<ellipse cx="471.539" cy="679.167" rx="1.53877" ry="1.61111" fill="white"/>
<ellipse cx="474.616" cy="675.944" rx="1.53877" ry="1.61111" fill="white"/>
<ellipse cx="471.539" cy="675.944" rx="1.53877" ry="1.61111" fill="white"/>
<ellipse cx="483.849" cy="675.944" rx="1.53877" ry="1.61111" fill="white"/>
<ellipse cx="480.771" cy="675.944" rx="1.53877" ry="1.61111" fill="white"/>
<ellipse cx="483.849" cy="672.722" rx="1.53877" ry="1.61111" fill="white"/>
<ellipse cx="483.849" cy="663.056" rx="1.53877" ry="1.61111" fill="white"/>
<ellipse cx="480.771" cy="672.722" rx="1.53877" ry="1.61111" fill="white"/>
<ellipse cx="480.771" cy="663.056" rx="1.53877" ry="1.61111" fill="white"/>
<ellipse cx="474.616" cy="672.722" rx="1.53877" ry="1.61111" fill="white"/>
<ellipse cx="474.616" cy="663.056" rx="1.53877" ry="1.61111" fill="white"/>
<ellipse cx="471.539" cy="672.722" rx="1.53877" ry="1.61111" fill="white"/>
<ellipse cx="471.539" cy="663.056" rx="1.53877" ry="1.61111" fill="white"/>
<ellipse cx="471.539" cy="669.5" rx="1.53877" ry="1.61111" fill="white"/>
<ellipse cx="471.539" cy="659.833" rx="1.53877" ry="1.61111" fill="white"/>
<ellipse cx="483.849" cy="669.5" rx="1.53877" ry="1.61111" fill="white"/>
<ellipse cx="483.849" cy="659.833" rx="1.53877" ry="1.61111" fill="white"/>
<ellipse cx="483.849" cy="666.278" rx="1.53877" ry="1.61111" fill="white"/>
<ellipse cx="477.694" cy="659.833" rx="1.53877" ry="1.61111" fill="white"/>
<ellipse cx="480.771" cy="669.5" rx="1.53877" ry="1.61111" fill="white"/>
<ellipse cx="480.771" cy="659.833" rx="1.53877" ry="1.61111" fill="white"/>
<ellipse cx="474.616" cy="669.5" rx="1.53877" ry="1.61111" fill="white"/>
<ellipse cx="474.616" cy="659.833" rx="1.53877" ry="1.61111" fill="white"/>
<ellipse cx="480.771" cy="666.278" rx="1.53877" ry="1.61111" fill="white"/>
<ellipse cx="480.771" cy="656.611" rx="1.53877" ry="1.61111" fill="white"/>
<ellipse cx="477.694" cy="656.611" rx="1.53877" ry="1.61111" fill="white"/>
<ellipse cx="474.616" cy="666.278" rx="1.53877" ry="1.61111" fill="white"/>
<ellipse cx="474.616" cy="656.611" rx="1.53877" ry="1.61111" fill="white"/>
<ellipse cx="471.539" cy="666.278" rx="1.53877" ry="1.61111" fill="white"/>
<ellipse cx="471.539" cy="656.611" rx="1.53877" ry="1.61111" fill="white"/>
<ellipse cx="665.616" cy="684.389" rx="1.53877" ry="1.61111" fill="white"/>
<ellipse cx="668.694" cy="684.389" rx="1.53877" ry="1.61111" fill="white"/>
<ellipse cx="671.771" cy="684.389" rx="1.53877" ry="1.61111" fill="white"/>
<ellipse cx="674.849" cy="684.389" rx="1.53877" ry="1.61111" fill="white"/>
<ellipse cx="665.616" cy="681.167" rx="1.53877" ry="1.61111" fill="white"/>
<ellipse cx="671.771" cy="681.167" rx="1.53877" ry="1.61111" fill="white"/>
<ellipse cx="668.694" cy="681.167" rx="1.53877" ry="1.61111" fill="white"/>
<ellipse cx="674.849" cy="681.167" rx="1.53877" ry="1.61111" fill="white"/>
<ellipse cx="662.539" cy="681.167" rx="1.53877" ry="1.61111" fill="white"/>
<ellipse cx="665.616" cy="677.944" rx="1.53877" ry="1.61111" fill="white"/>
<ellipse cx="662.539" cy="677.944" rx="1.53877" ry="1.61111" fill="white"/>
<ellipse cx="674.849" cy="677.944" rx="1.53877" ry="1.61111" fill="white"/>
<ellipse cx="671.771" cy="677.944" rx="1.53877" ry="1.61111" fill="white"/>
<ellipse cx="674.849" cy="674.722" rx="1.53877" ry="1.61111" fill="white"/>
<ellipse cx="674.849" cy="665.056" rx="1.53877" ry="1.61111" fill="white"/>
<ellipse cx="671.771" cy="674.722" rx="1.53877" ry="1.61111" fill="white"/>
<ellipse cx="671.771" cy="665.056" rx="1.53877" ry="1.61111" fill="white"/>
<ellipse cx="665.616" cy="674.722" rx="1.53877" ry="1.61111" fill="white"/>
<ellipse cx="665.616" cy="665.056" rx="1.53877" ry="1.61111" fill="white"/>
<ellipse cx="662.539" cy="674.722" rx="1.53877" ry="1.61111" fill="white"/>
<ellipse cx="662.539" cy="665.056" rx="1.53877" ry="1.61111" fill="white"/>
<ellipse cx="662.539" cy="671.5" rx="1.53877" ry="1.61111" fill="white"/>
<ellipse cx="662.539" cy="661.833" rx="1.53877" ry="1.61111" fill="white"/>
<ellipse cx="674.849" cy="671.5" rx="1.53877" ry="1.61111" fill="white"/>
<ellipse cx="674.849" cy="661.833" rx="1.53877" ry="1.61111" fill="white"/>
<ellipse cx="674.849" cy="668.278" rx="1.53877" ry="1.61111" fill="white"/>
<ellipse cx="668.694" cy="661.833" rx="1.53877" ry="1.61111" fill="white"/>
<ellipse cx="671.771" cy="671.5" rx="1.53877" ry="1.61111" fill="white"/>
<ellipse cx="671.771" cy="661.833" rx="1.53877" ry="1.61111" fill="white"/>
<ellipse cx="665.616" cy="671.5" rx="1.53877" ry="1.61111" fill="white"/>
<ellipse cx="665.616" cy="661.833" rx="1.53877" ry="1.61111" fill="white"/>
<ellipse cx="671.771" cy="668.278" rx="1.53877" ry="1.61111" fill="white"/>
<ellipse cx="671.771" cy="658.611" rx="1.53877" ry="1.61111" fill="white"/>
<ellipse cx="668.694" cy="658.611" rx="1.53877" ry="1.61111" fill="white"/>
<ellipse cx="665.616" cy="668.278" rx="1.53877" ry="1.61111" fill="white"/>
<ellipse cx="665.616" cy="658.611" rx="1.53877" ry="1.61111" fill="white"/>
<ellipse cx="662.539" cy="668.278" rx="1.53877" ry="1.61111" fill="white"/>
<ellipse cx="662.539" cy="658.611" rx="1.53877" ry="1.61111" fill="white"/>
</g>
<defs>
<clipPath id="clip0_37_195">
<rect width="1200" height="1200" fill="white" transform="translate(0 -88)"/>
</clipPath>
</defs>
</svg>
