<svg width="24" height="24" viewBox="0 0 24 24" fill="none" xmlns="http://www.w3.org/2000/svg">
<path d="M7.9 19.1895C9.80858 20.1289 12.0041 20.3833 14.0909 19.907C16.1777 19.4306 18.0186 18.2548 19.2818 16.5914C20.545 14.928 21.1474 12.8864 20.9806 10.8345C20.8137 8.78263 19.8886 6.85539 18.3718 5.40008C16.855 3.94477 14.8464 3.05709 12.7078 2.89702C10.5693 2.73695 8.44147 3.315 6.70782 4.52701C4.97417 5.73902 3.74869 7.50528 3.25222 9.50752C2.75575 11.5098 3.02094 13.6163 4 15.4475L2 21.1084L7.9 19.1895Z" stroke="#87B29E" stroke-width="2" stroke-linecap="round" stroke-linejoin="round"/>
<path d="M8 11.5137H8.01" stroke="#87B29E" stroke-width="2" stroke-linecap="round" stroke-linejoin="round"/>
<path d="M12 11.5137H12.01" stroke="#87B29E" stroke-width="2" stroke-linecap="round" stroke-linejoin="round"/>
<path d="M16 11.5137H16.01" stroke="#87B29E" stroke-width="2" stroke-linecap="round" stroke-linejoin="round"/>
</svg>
