<svg width="78" height="77" viewBox="0 0 78 77" fill="none" xmlns="http://www.w3.org/2000/svg">
<ellipse cx="39" cy="38.5" rx="39" ry="38.5" fill="#D9D9D9"/>
<path d="M46.75 49.25V46.75C46.75 45.4239 46.2232 44.1521 45.2855 43.2145C44.3479 42.2768 43.0761 41.75 41.75 41.75H34.25C32.9239 41.75 31.6521 42.2768 30.7145 43.2145C29.7768 44.1521 29.25 45.4239 29.25 46.75V49.25" stroke="#354450" stroke-width="2" stroke-linecap="round" stroke-linejoin="round"/>
<path d="M38 36.75C40.7614 36.75 43 34.5114 43 31.75C43 28.9886 40.7614 26.75 38 26.75C35.2386 26.75 33 28.9886 33 31.75C33 34.5114 35.2386 36.75 38 36.75Z" stroke="#354450" stroke-width="2" stroke-linecap="round" stroke-linejoin="round"/>
</svg>
